<?xml version="1.0" encoding="UTF-8" standalone="no"?><svg xmlns="http://www.w3.org/2000/svg" xmlns:xlink="http://www.w3.org/1999/xlink" contentScriptType="application/ecmascript" contentStyleType="text/css" height="338px" preserveAspectRatio="none" style="width:265px;height:338px;" version="1.1" viewBox="0 0 265 338" width="265px" zoomAndPan="magnify"><defs><filter height="300%" id="f1pcbq7zvp2ljb" width="300%" x="-1" y="-1"><feGaussianBlur result="blurOut" stdDeviation="2.0"/><feColorMatrix in="blurOut" result="blurOut2" type="matrix" values="0 0 0 0 0 0 0 0 0 0 0 0 0 0 0 0 0 0 .4 0"/><feOffset dx="4.0" dy="4.0" in="blurOut2" result="blurOut3"/><feBlend in="SourceGraphic" in2="blurOut3" mode="normal"/></filter></defs><g><line style="stroke:#A80036;stroke-width:1.0;stroke-dasharray:5.0,5.0;" x1="40" x2="40" y1="43.9404" y2="291.521"/><rect fill="#FEFECE" filter="url(#f1pcbq7zvp2ljb)" height="33.9404" style="stroke:#A80036;stroke-width:1.5;" width="67" x="5" y="5"/><text fill="#000000" font-family="sans-serif" font-size="14" lengthAdjust="spacing" textLength="53" x="12" y="28.8643">Instance</text><rect fill="#FEFECE" filter="url(#f1pcbq7zvp2ljb)" height="33.9404" style="stroke:#A80036;stroke-width:1.5;" width="67" x="5" y="290.521"/><text fill="#000000" font-family="sans-serif" font-size="14" lengthAdjust="spacing" textLength="53" x="12" y="314.3853">Instance</text><line style="stroke:#A80036;stroke-width:1.0;" x1="40.5" x2="82.5" y1="78.4565" y2="78.4565"/><line style="stroke:#A80036;stroke-width:1.0;" x1="82.5" x2="82.5" y1="78.4565" y2="91.4565"/><line style="stroke:#A80036;stroke-width:1.0;" x1="41.5" x2="82.5" y1="91.4565" y2="91.4565"/><polygon fill="#A80036" points="51.5,87.4565,41.5,91.4565,51.5,95.4565,47.5,91.4565" style="stroke:#A80036;stroke-width:1.0;"/><text fill="#000000" font-family="sans-serif" font-size="13" lengthAdjust="spacing" textLength="211" x="47.5" y="73.6001">1. prepare new artifact to temp folder</text><line style="stroke:#A80036;stroke-width:1.0;" x1="40.5" x2="82.5" y1="123.9727" y2="123.9727"/><line style="stroke:#A80036;stroke-width:1.0;" x1="82.5" x2="82.5" y1="123.9727" y2="136.9727"/><line style="stroke:#A80036;stroke-width:1.0;" x1="41.5" x2="82.5" y1="136.9727" y2="136.9727"/><polygon fill="#A80036" points="51.5,132.9727,41.5,136.9727,51.5,140.9727,47.5,136.9727" style="stroke:#A80036;stroke-width:1.0;"/><text fill="#000000" font-family="sans-serif" font-size="13" lengthAdjust="spacing" textLength="87" x="47.5" y="119.1162">2. stop runtime</text><line style="stroke:#A80036;stroke-width:1.0;" x1="40.5" x2="82.5" y1="169.4888" y2="169.4888"/><line style="stroke:#A80036;stroke-width:1.0;" x1="82.5" x2="82.5" y1="169.4888" y2="182.4888"/><line style="stroke:#A80036;stroke-width:1.0;" x1="41.5" x2="82.5" y1="182.4888" y2="182.4888"/><polygon fill="#A80036" points="51.5,178.4888,41.5,182.4888,51.5,186.4888,47.5,182.4888" style="stroke:#A80036;stroke-width:1.0;"/><text fill="#000000" font-family="sans-serif" font-size="13" lengthAdjust="spacing" textLength="172" x="47.5" y="164.6323">3. clean current runtime folder</text><line style="stroke:#A80036;stroke-width:1.0;" x1="40.5" x2="82.5" y1="215.0049" y2="215.0049"/><line style="stroke:#A80036;stroke-width:1.0;" x1="82.5" x2="82.5" y1="215.0049" y2="228.0049"/><line style="stroke:#A80036;stroke-width:1.0;" x1="41.5" x2="82.5" y1="228.0049" y2="228.0049"/><polygon fill="#A80036" points="51.5,224.0049,41.5,228.0049,51.5,232.0049,47.5,228.0049" style="stroke:#A80036;stroke-width:1.0;"/><text fill="#000000" font-family="sans-serif" font-size="13" lengthAdjust="spacing" textLength="200" x="47.5" y="210.1484">4. put new artifact to runtime folder</text><line style="stroke:#A80036;stroke-width:1.0;" x1="40.5" x2="82.5" y1="260.521" y2="260.521"/><line style="stroke:#A80036;stroke-width:1.0;" x1="82.5" x2="82.5" y1="260.521" y2="273.521"/><line style="stroke:#A80036;stroke-width:1.0;" x1="41.5" x2="82.5" y1="273.521" y2="273.521"/><polygon fill="#A80036" points="51.5,269.521,41.5,273.521,51.5,277.521,47.5,273.521" style="stroke:#A80036;stroke-width:1.0;"/><text fill="#000000" font-family="sans-serif" font-size="13" lengthAdjust="spacing" textLength="88" x="47.5" y="255.6646">5. start runtime</text><!--MD5=[b808524258c7eef27136f99fd69a72e9]
@startuml
"Instance" -> "Instance": 1. prepare new artifact to temp folder
"Instance" <- "Instance": 2. stop runtime
"Instance" -> "Instance": 3. clean current runtime folder
"Instance" -> "Instance": 4. put new artifact to runtime folder
"Instance" <- "Instance": 5. start runtime
@enduml

PlantUML version 1.2021.00(Sun Jan 10 18:25:05 CST 2021)
(GPL source distribution)
Java Runtime: OpenJDK Runtime Environment
JVM: OpenJDK 64-Bit Server VM
Default Encoding: MS950
Language: zh
Country: TW
--></g></svg>