<?xml version="1.0" encoding="UTF-8" standalone="no"?><svg xmlns="http://www.w3.org/2000/svg" xmlns:xlink="http://www.w3.org/1999/xlink" contentScriptType="application/ecmascript" contentStyleType="text/css" height="331px" preserveAspectRatio="none" style="width:640px;height:331px;" version="1.1" viewBox="0 0 640 331" width="640px" zoomAndPan="magnify"><defs><filter height="300%" id="fvgbss69dnqzf" width="300%" x="-1" y="-1"><feGaussianBlur result="blurOut" stdDeviation="2.0"/><feColorMatrix in="blurOut" result="blurOut2" type="matrix" values="0 0 0 0 0 0 0 0 0 0 0 0 0 0 0 0 0 0 .4 0"/><feOffset dx="4.0" dy="4.0" in="blurOut2" result="blurOut3"/><feBlend in="SourceGraphic" in2="blurOut3" mode="normal"/></filter></defs><g><line style="stroke:#A80036;stroke-width:1.0;stroke-dasharray:5.0,5.0;" x1="40" x2="40" y1="43.9404" y2="285.0371"/><line style="stroke:#A80036;stroke-width:1.0;stroke-dasharray:5.0,5.0;" x1="206.5" x2="206.5" y1="43.9404" y2="285.0371"/><line style="stroke:#A80036;stroke-width:1.0;stroke-dasharray:5.0,5.0;" x1="344.5" x2="344.5" y1="43.9404" y2="285.0371"/><line style="stroke:#A80036;stroke-width:1.0;stroke-dasharray:5.0,5.0;" x1="463.5" x2="463.5" y1="43.9404" y2="285.0371"/><rect fill="#FEFECE" filter="url(#fvgbss69dnqzf)" height="33.9404" style="stroke:#A80036;stroke-width:1.5;" width="67" x="5" y="5"/><text fill="#000000" font-family="sans-serif" font-size="14" lengthAdjust="spacing" textLength="53" x="12" y="28.8643">Instance</text><rect fill="#FEFECE" filter="url(#fvgbss69dnqzf)" height="33.9404" style="stroke:#A80036;stroke-width:1.5;" width="67" x="5" y="284.0371"/><text fill="#000000" font-family="sans-serif" font-size="14" lengthAdjust="spacing" textLength="53" x="12" y="307.9014">Instance</text><rect fill="#FEFECE" filter="url(#fvgbss69dnqzf)" height="33.9404" style="stroke:#A80036;stroke-width:1.5;" width="144" x="132.5" y="5"/><text fill="#000000" font-family="sans-serif" font-size="14" lengthAdjust="spacing" textLength="130" x="139.5" y="28.8643">Health check service</text><rect fill="#FEFECE" filter="url(#fvgbss69dnqzf)" height="33.9404" style="stroke:#A80036;stroke-width:1.5;" width="144" x="132.5" y="284.0371"/><text fill="#000000" font-family="sans-serif" font-size="14" lengthAdjust="spacing" textLength="130" x="139.5" y="307.9014">Health check service</text><rect fill="#FEFECE" filter="url(#fvgbss69dnqzf)" height="33.9404" style="stroke:#A80036;stroke-width:1.5;" width="104" x="290.5" y="5"/><text fill="#000000" font-family="sans-serif" font-size="14" lengthAdjust="spacing" textLength="90" x="297.5" y="28.8643">Artifact Server</text><rect fill="#FEFECE" filter="url(#fvgbss69dnqzf)" height="33.9404" style="stroke:#A80036;stroke-width:1.5;" width="104" x="290.5" y="284.0371"/><text fill="#000000" font-family="sans-serif" font-size="14" lengthAdjust="spacing" textLength="90" x="297.5" y="307.9014">Artifact Server</text><rect fill="#FEFECE" filter="url(#fvgbss69dnqzf)" height="33.9404" style="stroke:#A80036;stroke-width:1.5;" width="106" x="408.5" y="5"/><text fill="#000000" font-family="sans-serif" font-size="14" lengthAdjust="spacing" textLength="92" x="415.5" y="28.8643">Load Balancer</text><rect fill="#FEFECE" filter="url(#fvgbss69dnqzf)" height="33.9404" style="stroke:#A80036;stroke-width:1.5;" width="106" x="408.5" y="284.0371"/><text fill="#000000" font-family="sans-serif" font-size="14" lengthAdjust="spacing" textLength="92" x="415.5" y="307.9014">Load Balancer</text><polygon fill="#A80036" points="51.5,74.4565,41.5,78.4565,51.5,82.4565,47.5,78.4565" style="stroke:#A80036;stroke-width:1.0;"/><line style="stroke:#A80036;stroke-width:1.0;" x1="45.5" x2="205.5" y1="78.4565" y2="78.4565"/><text fill="#000000" font-family="sans-serif" font-size="13" lengthAdjust="spacing" textLength="87" x="57.5" y="73.6001">1.Health check</text><polygon fill="#A80036" points="332.5,106.9727,342.5,110.9727,332.5,114.9727,336.5,110.9727" style="stroke:#A80036;stroke-width:1.0;"/><line style="stroke:#A80036;stroke-width:1.0;" x1="40.5" x2="338.5" y1="110.9727" y2="110.9727"/><text fill="#000000" font-family="sans-serif" font-size="13" lengthAdjust="spacing" textLength="66" x="47.5" y="106.1162">Get Artifact</text><polygon fill="#A80036" points="51.5,139.4888,41.5,143.4888,51.5,147.4888,47.5,143.4888" style="stroke:#A80036;stroke-width:1.0;"/><line style="stroke:#A80036;stroke-width:1.0;" x1="45.5" x2="343.5" y1="143.4888" y2="143.4888"/><text fill="#000000" font-family="sans-serif" font-size="13" lengthAdjust="spacing" textLength="89" x="57.5" y="138.6323">2.return Artifact</text><line style="stroke:#A80036;stroke-width:1.0;" x1="40.5" x2="82.5" y1="176.0049" y2="176.0049"/><line style="stroke:#A80036;stroke-width:1.0;" x1="82.5" x2="82.5" y1="176.0049" y2="189.0049"/><line style="stroke:#A80036;stroke-width:1.0;" x1="41.5" x2="82.5" y1="189.0049" y2="189.0049"/><polygon fill="#A80036" points="51.5,185.0049,41.5,189.0049,51.5,193.0049,47.5,189.0049" style="stroke:#A80036;stroke-width:1.0;"/><text fill="#000000" font-family="sans-serif" font-size="13" lengthAdjust="spacing" textLength="80" x="47.5" y="171.1484">3.Provisioning</text><polygon fill="#A80036" points="194.5,217.521,204.5,221.521,194.5,225.521,198.5,221.521" style="stroke:#A80036;stroke-width:1.0;"/><line style="stroke:#A80036;stroke-width:1.0;" x1="40.5" x2="200.5" y1="221.521" y2="221.521"/><text fill="#000000" font-family="sans-serif" font-size="13" lengthAdjust="spacing" textLength="142" x="47.5" y="216.6646">4.Health check return ok</text><line style="stroke:#A80036;stroke-width:1.0;" x1="463.5" x2="505.5" y1="254.0371" y2="254.0371"/><line style="stroke:#A80036;stroke-width:1.0;" x1="505.5" x2="505.5" y1="254.0371" y2="267.0371"/><line style="stroke:#A80036;stroke-width:1.0;" x1="464.5" x2="505.5" y1="267.0371" y2="267.0371"/><polygon fill="#A80036" points="474.5,263.0371,464.5,267.0371,474.5,271.0371,470.5,267.0371" style="stroke:#A80036;stroke-width:1.0;"/><text fill="#000000" font-family="sans-serif" font-size="13" lengthAdjust="spacing" textLength="163" x="470.5" y="249.1807">5. Switch Instance to Online</text><!--MD5=[04f35a47232a7f3125e2bad826b15a70]
@startuml
"Instance" <- "Health check service": 1.Health check
"Instance" -> "Artifact Server": Get Artifact
"Instance" <- "Artifact Server": 2.return Artifact
"Instance" -> "Instance": 3.Provisioning
"Instance" -> "Health check service": 4.Health check return ok
"Load Balancer" -> "Load Balancer": 5. Switch Instance to Online
@enduml

PlantUML version 1.2021.00(Sun Jan 10 18:25:05 CST 2021)
(GPL source distribution)
Java Runtime: OpenJDK Runtime Environment
JVM: OpenJDK 64-Bit Server VM
Default Encoding: MS950
Language: zh
Country: TW
--></g></svg>